HIERARCHY
ROOT Hips
{
 OFFSET 0.000000 0.000000 0.000000
 CHANNELS 6 Xposition Yposition Zposition Yrotation Xrotation Zrotation
 JOINT Chest
 {
  OFFSET 0.000000 9.585900 0.002600
  CHANNELS 3 Yrotation Xrotation Zrotation
  JOINT Chest2
  {
   OFFSET 0.000000 9.601200 -0.005300
   CHANNELS 3 Yrotation Xrotation Zrotation
   JOINT Chest3
   {
    OFFSET 0.000000 9.561800 0.000000
    CHANNELS 3 Yrotation Xrotation Zrotation
    JOINT Chest4
    {
     OFFSET 0.000000 9.552100 0.000000
     CHANNELS 3 Yrotation Xrotation Zrotation
     JOINT Neck
     {
      OFFSET 0.000000 14.453000 0.000000
      CHANNELS 3 Yrotation Xrotation Zrotation
      JOINT Head
      {
       OFFSET 0.000000 8.936500 -0.011300
       CHANNELS 3 Yrotation Xrotation Zrotation
       End Site
       {
        OFFSET 0.000000 17.073600 -0.006000
       }
      }
     }
     JOINT RightCollar
     {
      OFFSET -2.921100 9.558500 0.000000
      CHANNELS 3 Yrotation Xrotation Zrotation
      JOINT RightShoulder
      {
       OFFSET -13.519700 0.000000 0.000000
       CHANNELS 3 Yrotation Xrotation Zrotation
       JOINT RightElbow
       {
        OFFSET 0.000000 -29.696600 0.000000
        CHANNELS 3 Yrotation Xrotation Zrotation
        JOINT RightWrist
        {
         OFFSET 0.000000 -24.004700 0.000000
         CHANNELS 3 Yrotation Xrotation Zrotation
         End Site
         {
          OFFSET 0.000000 -17.728500 0.000000
         }
        }
       }
      }
     }
     JOINT LeftCollar
     {
      OFFSET 2.921100 9.558500 0.000000
      CHANNELS 3 Yrotation Xrotation Zrotation
      JOINT LeftShoulder
      {
       OFFSET 13.519700 0.000000 0.000000
       CHANNELS 3 Yrotation Xrotation Zrotation
       JOINT LeftElbow
       {
        OFFSET 0.000000 -29.696600 0.000000
        CHANNELS 3 Yrotation Xrotation Zrotation
        JOINT LeftWrist
        {
         OFFSET 0.000000 -24.004700 0.000000
         CHANNELS 3 Yrotation Xrotation Zrotation
         End Site
         {
          OFFSET 0.000000 -17.728500 0.000000
         }
        }
       }
      }
     }
    }
   }
  }
 }
 JOINT RightHip
 {
  OFFSET -7.771700 -0.012900 -0.001300
  CHANNELS 3 Yrotation Xrotation Zrotation
  JOINT RightKnee
  {
   OFFSET 0.000000 -40.869800 0.001200
   CHANNELS 3 Yrotation Xrotation Zrotation
   JOINT RightAnkle
   {
    OFFSET 0.000000 -39.717900 0.002100
    CHANNELS 3 Yrotation Xrotation Zrotation
    JOINT RightToe
    {
     OFFSET 0.000000 -4.965400 11.033500
     CHANNELS 3 Yrotation Xrotation Zrotation
     End Site
     {
      OFFSET 0.000000 -1.423100 5.872300
     }
    }
   }
  }
 }
 JOINT LeftHip
 {
  OFFSET 7.771700 -0.012900 -0.001300
  CHANNELS 3 Yrotation Xrotation Zrotation
  JOINT LeftKnee
  {
   OFFSET 0.000000 -40.869800 0.001200
   CHANNELS 3 Yrotation Xrotation Zrotation
   JOINT LeftAnkle
   {
    OFFSET 0.000000 -39.717900 0.002100
    CHANNELS 3 Yrotation Xrotation Zrotation
    JOINT LeftToe
    {
     OFFSET 0.000000 -4.965400 11.033500
     CHANNELS 3 Yrotation Xrotation Zrotation
     End Site
     {
      OFFSET 0.000000 -1.423100 5.872300
     }
    }
   }
  }
 }
}
MOTION
Frames: 13
Frame Time: 0.008333
-22.207363 55.233813 9.775568 -176.517691 -17.221009 -1.736341 0.058170 16.316652 0.414636 0.016476 1.633392 0.060298 0.018465 2.747244 0.097352 0.152817 14.496566 0.533108 1.286302 12.394903 6.159717 -0.051632 -12.593539 6.353219 1.485245 0.403559 2.262359 2.036702 -8.128221 -8.730698 -79.735941 -79.388268 104.544068 -8.395906 -6.362987 3.318386 -6.429679 -2.154343 1.068713 -0.961569 -11.814128 10.654432 58.519233 -59.622546 -103.423421 3.210913 -5.178591 2.043883 -1.467489 -57.707410 11.308548 -103.000839 88.363778 -108.257979 -11.806307 -23.677740 13.591644 0.018881 -0.064462 -0.033966 10.995408 -54.036646 -7.005412 109.629922 77.396692 106.487832 -9.036540 -24.423127 3.129940 0.031878 0.171750 0.020127
-22.209306 55.234273 9.773223 -176.517599 -17.234757 -1.733334 0.065175 16.320919 0.416174 0.011197 1.634797 0.059177 0.018192 2.747066 0.097483 0.151662 14.496114 0.533719 1.290166 12.397720 6.151749 -0.035233 -12.599834 6.329627 1.485051 0.411576 2.256017 2.029793 -8.122004 -8.724489 -79.746199 -79.382199 104.565038 -8.388522 -6.380918 3.312742 -6.424611 -2.145631 1.071235 -0.968717 -11.815152 10.637891 58.510119 -59.632680 -103.414054 3.207225 -5.181400 2.038766 -1.459064 -57.695877 11.342450 -102.266397 88.307951 -107.486754 -12.071982 -23.626218 13.629505 0.005150 -0.058386 -0.011646 10.995177 -54.022567 -6.999444 109.662278 77.400636 106.515073 -9.046338 -24.422603 3.138194 0.040513 0.167087 0.019373
-22.211099 55.234735 9.769826 -176.522712 -17.252046 -1.730870 0.069626 16.324549 0.416487 0.010184 1.642223 0.058373 0.019367 2.749636 0.097309 0.150274 14.492630 0.535083 1.295399 12.399665 6.143190 -0.020180 -12.605513 6.307734 1.486995 0.418305 2.252315 2.026535 -8.115621 -8.723841 -79.769125 -79.377918 104.594469 -8.417057 -6.418379 3.309236 -6.421075 -2.138566 1.070197 -0.972338 -11.818250 10.620076 58.491075 -59.644023 -103.391265 3.199790 -5.184534 2.039732 -1.446966 -57.677222 11.340663 -102.139759 88.301396 -107.354792 -12.093332 -23.608351 13.630729 0.004070 -0.064033 -0.006611 10.997730 -54.005424 -6.994487 109.704915 77.400519 106.553701 -9.047183 -24.425412 3.148672 0.038735 0.162026 0.013915
-22.207676 55.235657 9.764371 -176.539281 -17.277909 -1.757328 0.093369 16.346556 0.448648 0.010388 1.640476 0.058276 0.019659 2.751971 0.097767 0.150673 14.494161 0.535247 1.301505 12.392944 6.132478 -0.007960 -12.608217 6.290891 1.497041 0.419979 2.245651 2.019052 -8.109602 -8.719410 -79.796279 -79.375724 104.625501 -8.420936 -6.431643 3.298685 -6.412107 -2.138683 1.081223 -0.975984 -11.817184 10.601851 58.483506 -59.648259 -103.396138 3.193840 -5.185545 2.050439 -1.466730 -57.644014 11.374281 -101.965075 88.304012 -107.199079 -11.904119 -23.608993 13.604654 0.011584 -0.079827 -0.011487 10.968394 -53.986881 -6.935787 109.738387 77.398987 106.585370 -9.028631 -24.404095 3.154499 0.015331 0.134450 0.004193
-22.208627 55.235273 9.762278 -176.536637 -17.280978 -1.762144 0.091420 16.348747 0.452625 0.011731 1.635606 0.057595 0.016108 2.751701 0.099548 0.149932 14.490754 0.538907 1.313053 12.384358 6.111009 -0.003008 -12.601306 6.282895 1.503715 0.427328 2.231181 2.020667 -8.099874 -8.710417 -79.781607 -79.378433 104.608076 -8.411687 -6.447079 3.289013 -6.407234 -2.134227 1.080135 -0.972219 -11.815931 10.590332 58.461594 -59.649717 -103.380142 3.188338 -5.169856 2.041797 -1.471808 -57.638757 11.372661 -101.830307 88.293741 -107.074904 -11.788593 -23.598800 13.584669 0.014740 -0.090953 -0.009250 10.961915 -53.984993 -6.927796 109.756860 77.395866 106.602034 -9.033694 -24.408644 3.160104 0.016372 0.136835 0.003158
-22.208763 55.234788 9.760154 -176.535081 -17.281847 -1.771028 0.094271 16.345335 0.460216 0.011057 1.636641 0.058893 0.015162 2.747911 0.098999 0.144762 14.486610 0.541216 1.322918 12.383773 6.099676 0.002143 -12.597342 6.274527 1.503839 0.438205 2.222417 2.031000 -8.093851 -8.703695 -79.790696 -79.383204 104.612257 -8.396612 -6.451836 3.279334 -6.402988 -2.120329 1.078345 -0.975789 -11.822415 10.584712 58.449991 -59.651679 -103.374628 3.187495 -5.161396 2.046833 -1.482333 -57.636173 11.386226 -101.657094 88.282487 -106.911810 -11.697533 -23.581547 13.568066 0.016488 -0.101546 -0.005716 10.954647 -53.984953 -6.915682 109.763976 77.392519 106.610013 -9.022492 -24.413908 3.157661 0.007033 0.138826 0.002182
-22.209798 55.234198 9.758154 -176.533052 -17.280558 -1.773845 0.096644 16.337491 0.463075 0.009026 1.639287 0.059315 0.016132 2.741808 0.099467 0.142020 14.481575 0.544059 1.323677 12.395862 6.094682 0.004126 -12.596637 6.270941 1.493586 0.458019 2.210241 2.043619 -8.096855 -8.694614 -79.770655 -79.391519 104.584586 -8.385389 -6.453646 3.274273 -6.404042 -2.104819 1.075397 -0.973540 -11.823595 10.582264 58.435367 -59.648696 -103.372212 3.181649 -5.161491 2.055069 -1.483971 -57.635949 11.385648 -101.632671 88.283372 -106.894151 -11.625366 -23.568901 13.552163 0.000489 -0.106287 -0.005515 10.951308 -53.986399 -6.912959 109.765532 77.390715 106.612052 -9.021389 -24.416759 3.157055 0.014590 0.141372 0.003167
-22.210541 55.233637 9.756033 -176.530856 -17.278828 -1.777612 0.101819 16.333998 0.468357 0.012750 1.640371 0.056938 0.012494 2.737382 0.102331 0.150781 14.478053 0.543615 1.319303 12.393363 6.088260 0.009706 -12.597834 6.258840 1.477692 0.467403 2.213686 2.045844 -8.097856 -8.693969 -79.726221 -79.402141 104.535645 -8.376897 -6.449491 3.266323 -6.422258 -2.083106 1.092673 -0.977833 -11.842672 10.572400 58.431590 -59.642771 -103.360811 3.179847 -5.153607 2.055601 -1.481096 -57.638164 11.391105 -101.548145 88.277611 -106.805722 -11.619712 -23.545908 13.542524 -0.000358 -0.108138 0.001864 10.945996 -53.989738 -6.906797 109.779797 77.390266 106.626315 -9.021204 -24.417959 3.156401 0.023433 0.141806 0.005277
-22.210634 55.233380 9.753048 -176.537620 -17.282053 -1.782229 0.113264 16.339556 0.472863 0.013351 1.639934 0.059071 0.013179 2.736998 0.100318 0.152436 14.477441 0.546538 1.327713 12.383797 6.073850 0.007819 -12.612995 6.249720 1.471444 0.469554 2.208611 2.050188 -8.102900 -8.685647 -79.638448 -79.416663 104.435684 -8.378572 -6.454949 3.271231 -6.427410 -2.080926 1.100983 -0.976796 -11.847336 10.569205 58.420251 -59.644255 -103.361233 3.175176 -5.155722 2.064567 -1.476779 -57.635784 11.406750 -101.389172 88.269026 -106.640360 -11.636424 -23.518537 13.533339 0.015520 -0.108855 0.013101 10.941121 -53.988878 -6.893636 109.815617 77.383393 106.662384 -9.021980 -24.424651 3.155081 0.022574 0.141484 0.005717
-22.211694 55.232943 9.750658 -176.538525 -17.281831 -1.782291 0.124284 16.345703 0.474117 0.005044 1.634244 0.060843 0.018048 2.739594 0.099903 0.152237 14.476137 0.547307 1.325259 12.380556 6.072711 0.005950 -12.617376 6.249041 1.457408 0.463743 2.207124 2.064978 -8.104993 -8.676326 -79.366225 -79.447886 104.133763 -8.388876 -6.484596 3.297047 -6.432670 -2.081856 1.104896 -0.974894 -11.849729 10.571195 58.394363 -59.648602 -103.361448 3.177651 -5.162442 2.075257 -1.465990 -57.635310 11.415515 -101.142923 88.252719 -106.387254 -11.690142 -23.496535 13.537346 0.011955 -0.101300 0.020163 10.944833 -53.988841 -6.892420 109.824498 77.384820 106.672323 -9.026193 -24.423662 3.157581 0.028076 0.143541 0.008318
-22.213116 55.232554 9.748301 -176.540067 -17.282305 -1.780125 0.132595 16.348960 0.473104 0.002021 1.636047 0.061094 0.027815 2.744002 0.098483 0.148671 14.474802 0.549763 1.319462 12.372140 6.073660 0.004300 -12.621939 6.248941 1.447800 0.456335 2.208805 2.067053 -8.108296 -8.672178 -79.191102 -79.463347 103.943798 -8.386006 -6.476982 3.304279 -6.445434 -2.085757 1.117120 -0.969140 -11.852399 10.569995 58.387456 -59.653204 -103.370317 3.174144 -5.150905 2.062178 -1.448971 -57.634031 11.418307 -100.745828 88.215159 -105.988311 -11.706234 -23.476658 13.543546 0.007838 -0.096085 0.023667 10.948031 -53.986784 -6.892589 109.826743 77.385422 106.674223 -9.030725 -24.423341 3.159025 0.031481 0.143161 0.009082
-22.213717 55.232430 9.745430 -176.535128 -17.286856 -1.785441 0.135284 16.356506 0.478120 0.006524 1.635482 0.059945 0.023550 2.745351 0.100064 0.154253 14.476881 0.550070 1.316243 12.365681 6.074279 0.000666 -12.628964 6.250390 1.436120 0.452944 2.213761 2.068781 -8.111865 -8.672874 -79.054970 -79.474748 103.796799 -8.367771 -6.446442 3.292630 -6.458839 -2.090189 1.126660 -0.976690 -11.856205 10.587944 58.389418 -59.645673 -103.373958 3.172390 -5.150526 2.056378 -1.432430 -57.628801 11.412358 -100.591676 88.204028 -105.825747 -11.702400 -23.459877 13.540682 0.007570 -0.096081 0.024820 10.933548 -53.982411 -6.884658 109.836422 77.384877 106.688501 -9.030451 -24.428572 3.151656 0.037328 0.146068 0.012092
-22.214967 55.232005 9.743990 -176.530506 -17.284286 -1.786913 0.134316 16.356735 0.478097 0.007508 1.636643 0.061135 0.022682 2.744535 0.099898 0.155775 14.476812 0.550063 1.313326 12.362841 6.074115 -0.005339 -12.634425 6.253091 1.429569 0.455797 2.218971 2.072667 -8.124071 -8.671453 -78.970666 -79.482784 103.708170 -8.364482 -6.433392 3.281122 -6.469266 -2.092537 1.135112 -0.972459 -11.857142 10.584955 58.380486 -59.649024 -103.369972 3.160068 -5.142898 2.055272 -1.433889 -57.631171 11.416197 -100.547101 88.202106 -105.781403 -11.704106 -23.438172 13.534855 0.006798 -0.099310 0.024799 10.924978 -53.984420 -6.883006 109.835747 77.383645 106.686968 -9.031973 -24.430747 3.149807 0.038127 0.151586 0.014447
